<svg width="102" height="102" viewBox="0 0 102 102" fill="none" xmlns="http://www.w3.org/2000/svg">
<circle cx="51" cy="51" r="51" fill="#BDBDBD"/>
<path d="M60.9298 52.3046C63.4216 50.3441 65.2404 47.6556 66.1332 44.6133C67.0259 41.571 66.9482 38.3261 65.9109 35.33C64.8735 32.3338 62.9282 29.7356 60.3454 27.8966C57.7626 26.0576 54.6708 25.0693 51.5002 25.0693C48.3296 25.0693 45.2378 26.0576 42.655 27.8966C40.0722 29.7356 38.1268 32.3338 37.0895 35.33C36.0521 38.3261 35.9744 41.571 36.8672 44.6133C37.7599 47.6556 39.5788 50.3441 42.0706 52.3046C37.8008 54.0152 34.0752 56.8525 31.2911 60.5139C28.507 64.1754 26.7686 68.5237 26.2614 73.0954C26.2247 73.4292 26.2541 73.7669 26.3479 74.0893C26.4417 74.4117 26.5981 74.7125 26.8082 74.9745C27.2324 75.5036 27.8494 75.8425 28.5235 75.9166C29.1976 75.9908 29.8735 75.7941 30.4026 75.3699C30.9317 74.9457 31.2706 74.3286 31.3448 73.6546C31.9029 68.6861 34.272 64.0974 37.9994 60.7652C41.7268 57.4331 46.5513 55.591 51.551 55.591C56.5507 55.591 61.3752 57.4331 65.1026 60.7652C68.8301 64.0974 71.1991 68.6861 71.7573 73.6546C71.8264 74.2791 72.1244 74.8559 72.5937 75.2736C73.0631 75.6914 73.6706 75.9204 74.2989 75.9166H74.5785C75.2448 75.84 75.8537 75.5031 76.2727 74.9794C76.6916 74.4557 76.8866 73.7876 76.8152 73.1208C76.3056 68.5362 74.5579 64.1766 71.7594 60.5096C68.961 56.8425 65.2173 54.0061 60.9298 52.3046V52.3046ZM51.5002 50.5C49.4894 50.5 47.5238 49.9037 45.8519 48.7866C44.18 47.6694 42.8769 46.0816 42.1074 44.2239C41.3379 42.3662 41.1366 40.322 41.5289 38.3499C41.9211 36.3777 42.8894 34.5662 44.3113 33.1444C45.7331 31.7226 47.5446 30.7543 49.5168 30.362C51.4889 29.9697 53.5331 30.171 55.3908 30.9405C57.2485 31.71 58.8363 33.0131 59.9535 34.685C61.0706 36.3569 61.6668 38.3225 61.6668 40.3333C61.6668 43.0297 60.5957 45.6156 58.6891 47.5222C56.7825 49.4288 54.1965 50.5 51.5002 50.5Z" fill="white"/>
</svg>
